# xmcd CD database file
#
# Track frame offsets:
#	150
#	11929
#	24585
#	34865
#	46880
#	59310
#	70924
#	81331
#	91969
#	101779
#	112435
#	122795
#	134726
#	144460
#	154428
#	164116
#	174129
#	185180
#	197528
#	209308
#	219957
#	230655
#	242602
#
# Disc length: 3370 seconds
#
# Revision: 0
# Processed by: cddbd v1.5.2PL0 Copyright (c) Steve Scherf et al.
# Submitted via: CDex 1.51
#
DISCID=5f0d2817
DTITLE=THE HAWKS/THE BEES - CLASSICS 5160
DYEAR=2005
DGENRE=Blues
TTITLE0=Joe The Grinder
TTITLE1=It Ain't That Way
TTITLE2=Candy Girl
TTITLE3=I-Yi
TTITLE4=Why Oh Why
TTITLE5=Good News
TTITLE6=She Is All Right
TTITLE7=He's The Fat Man
TTITLE8=Give It Up
TTITLE9=Nobody But You
TTITLE10=All Women All The Same
TTITLE11=That's What You Are
TTITLE12=It's Too Late Now
TTITLE13=School Girl
TTITLE14=These Blues
TTITLE15=A Want My Loving Now
TTITLE16=Can't See For Lookin'
TTITLE17=I Want To Be Loved
TTITLE18=Darling Please
TTITLE19=Get Away Baby
TTITLE20=Toy Bell
TTITLE21=Snatchin' Back
TTITLE22=The Sunny Side Of The Street
EXTD=YEAR: 2005
EXTT0=
EXTT1=
EXTT2=
EXTT3=
EXTT4=
EXTT5=
EXTT6=
EXTT7=
EXTT8=
EXTT9=
EXTT10=
EXTT11=
EXTT12=
EXTT13=
EXTT14=
EXTT15=
EXTT16=
EXTT17=
EXTT18=
EXTT19=
EXTT20=
EXTT21=
EXTT22=
PLAYORDER=
